<svg width="20" height="20" viewBox="0 0 20 20" fill="none" xmlns="http://www.w3.org/2000/svg">
<path d="M6.66659 3.33398H6.00008C5.06666 3.33398 4.5996 3.33398 4.24308 3.51564C3.92948 3.67543 3.6747 3.93021 3.51491 4.24382C3.33325 4.60033 3.33325 5.06739 3.33325 6.00081V14.0008C3.33325 14.9342 3.33325 15.4007 3.51491 15.7572C3.6747 16.0708 3.92948 16.3261 4.24308 16.4858C4.59925 16.6673 5.06575 16.6673 5.99734 16.6673H6.66659M6.66659 3.33398H14.0001C14.9335 3.33398 15.3996 3.33398 15.7561 3.51564C16.0697 3.67543 16.3253 3.93021 16.4851 4.24382C16.6666 4.59999 16.6666 5.06648 16.6666 5.99808V14.0036C16.6666 14.9352 16.6666 15.401 16.4851 15.7572C16.3253 16.0708 16.0697 16.3261 15.7561 16.4858C15.3999 16.6673 14.9341 16.6673 14.0025 16.6673H6.66659M6.66659 3.33398V16.6673M9.99992 9.16732H13.3333M9.99992 6.66732H13.3333" stroke="#6A6B6D" stroke-width="1.5" stroke-linecap="round" stroke-linejoin="round"/>
</svg>
