<svg width="21" height="20" viewBox="0 0 21 20" fill="none" xmlns="http://www.w3.org/2000/svg">
<path d="M8.1835 2.36713L3.69183 5.86713C2.94183 6.45046 2.3335 7.69213 2.3335 8.63379V14.8088C2.3335 16.7421 3.9085 18.3255 5.84183 18.3255H15.4918C17.4252 18.3255 19.0002 16.7421 19.0002 14.8171V8.75046C19.0002 7.74213 18.3252 6.45046 17.5002 5.87546L12.3502 2.26713C11.1835 1.45046 9.3085 1.49213 8.1835 2.36713Z" stroke="#6A6B6D" stroke-width="1.5" stroke-linecap="round" stroke-linejoin="round"/>
<path d="M10.6667 13.334C12.0475 13.334 13.1667 12.2147 13.1667 10.834C13.1667 9.45327 12.0475 8.33398 10.6667 8.33398C9.28604 8.33398 8.16675 9.45327 8.16675 10.834C8.16675 12.2147 9.28604 13.334 10.6667 13.334Z" stroke="#6A6B6D" stroke-width="1.5" stroke-linecap="round" stroke-linejoin="round"/>
</svg>
