<svg width="21" height="20" viewBox="0 0 21 20" fill="none" xmlns="http://www.w3.org/2000/svg">
<path d="M2.8335 5.00065V14.0006C2.8335 14.9341 2.8335 15.4005 3.01515 15.757C3.17494 16.0706 3.42972 16.3261 3.74333 16.4858C4.0995 16.6673 4.56599 16.6673 5.49759 16.6673H15.1694C16.101 16.6673 16.5668 16.6673 16.923 16.4858C17.2366 16.3261 17.4922 16.0707 17.652 15.7571C17.8337 15.4006 17.8337 14.9339 17.8337 14.0005L17.8337 7.66713C17.8337 6.73371 17.8337 6.267 17.652 5.91048C17.4922 5.59688 17.2368 5.3421 16.9232 5.18231C16.5666 5.00065 16.1003 5.00065 15.1668 5.00065H10.3335M2.8335 5.00065H10.3335M2.8335 5.00065C2.8335 4.08018 3.57969 3.33398 4.50016 3.33398H7.56226C7.96991 3.33398 8.17422 3.33398 8.36603 3.38003C8.53609 3.42086 8.69837 3.48837 8.84749 3.57975C9.01563 3.68279 9.16001 3.82716 9.44808 4.11523L10.3335 5.00065" stroke="#6A6B6D" stroke-width="1.5" stroke-linecap="round" stroke-linejoin="round"/>
</svg>
