<svg width="21" height="20" viewBox="0 0 21 20" fill="none" xmlns="http://www.w3.org/2000/svg">
<path d="M18.1667 16.666C18.1667 15.2146 16.7754 13.9799 14.8334 13.5223M13.1667 16.666C13.1667 14.8251 10.9282 13.3327 8.16675 13.3327C5.40532 13.3327 3.16675 14.8251 3.16675 16.666M13.1667 10.8327C15.0077 10.8327 16.5001 9.3403 16.5001 7.49935C16.5001 5.6584 15.0077 4.16602 13.1667 4.16602M8.16675 10.8327C6.3258 10.8327 4.83341 9.3403 4.83341 7.49935C4.83341 5.6584 6.3258 4.16602 8.16675 4.16602C10.0077 4.16602 11.5001 5.6584 11.5001 7.49935C11.5001 9.3403 10.0077 10.8327 8.16675 10.8327Z" stroke="#6A6B6D" stroke-width="1.5" stroke-linecap="round" stroke-linejoin="round"/>
</svg>
