<svg width="21" height="20" viewBox="0 0 21 20" fill="none" xmlns="http://www.w3.org/2000/svg">
<path d="M14.7862 2.89647L11.5079 6.17474L11.9498 8.38445L14.1595 8.82639L17.4378 5.54812C17.8436 6.50595 17.941 7.56633 17.7158 8.58191C17.4906 9.59748 16.9544 10.5176 16.1818 11.2141C15.4092 11.9107 14.4386 12.349 13.4052 12.4681C12.3718 12.5873 11.327 12.3812 10.4162 11.8787L6.03454 16.9514C5.68284 17.3027 5.20604 17.4999 4.70894 17.4998C4.21184 17.4997 3.73515 17.3021 3.38365 16.9506C3.03215 16.5991 2.83461 16.1224 2.83447 15.6253C2.83433 15.1282 3.03159 14.6514 3.38289 14.2997L8.45566 9.91806C7.95315 9.00724 7.74701 7.96247 7.86613 6.92907C7.98525 5.89568 8.4236 4.92513 9.12015 4.15252C9.8167 3.37992 10.7368 2.84371 11.7524 2.61852C12.7679 2.39333 13.8283 2.4907 14.7862 2.89647Z" stroke="#6A6B6D" stroke-width="1.5" stroke-linecap="round" stroke-linejoin="round"/>
</svg>
