<svg width="21" height="20" viewBox="0 0 21 20" fill="none" xmlns="http://www.w3.org/2000/svg">
<path d="M17.625 7.4348L17.3199 7.26502C17.2725 7.23866 17.2492 7.22543 17.2263 7.21172C16.9987 7.0754 16.8069 6.88705 16.6669 6.66172C16.6528 6.63904 16.6396 6.61526 16.6124 6.56827C16.5853 6.52134 16.5716 6.49755 16.5589 6.47401C16.4334 6.23957 16.3655 5.97832 16.3614 5.71241C16.361 5.68568 16.3611 5.65836 16.362 5.60406L16.368 5.24968C16.3775 4.68257 16.3823 4.39814 16.3026 4.14287C16.2318 3.91614 16.1134 3.7073 15.9552 3.53007C15.7765 3.32973 15.529 3.18681 15.0336 2.90133L14.6221 2.66419C14.1281 2.37951 13.881 2.23711 13.6187 2.18283C13.3866 2.13481 13.1472 2.13703 12.916 2.18893C12.655 2.24751 12.411 2.39362 11.9233 2.68566L11.9205 2.68698L11.6257 2.86353C11.5791 2.89145 11.5555 2.90552 11.5321 2.91851C11.3002 3.04744 11.0413 3.11874 10.7761 3.12725C10.7494 3.12811 10.7222 3.12811 10.6678 3.12811C10.6138 3.12811 10.5855 3.12811 10.5588 3.12725C10.293 3.1187 10.0336 3.04702 9.80134 2.91755C9.77793 2.90451 9.75478 2.89032 9.70806 2.86227L9.41133 2.68413C8.92027 2.38933 8.67437 2.2417 8.41198 2.18283C8.17983 2.13075 7.93956 2.1293 7.70667 2.17795C7.44371 2.23287 7.19655 2.37632 6.70223 2.66322L6.70004 2.66419L6.29365 2.90006L6.28915 2.90281C5.79928 3.18712 5.55376 3.32962 5.3765 3.52914C5.21919 3.70619 5.10162 3.9147 5.03125 4.14084C4.9517 4.39645 4.95594 4.68149 4.96553 5.25127L4.97148 5.60515C4.97238 5.65874 4.97394 5.68537 4.97355 5.71173C4.96961 5.97818 4.9008 6.23997 4.77487 6.47482C4.76241 6.49805 4.749 6.52128 4.7222 6.56767C4.69538 6.61409 4.68239 6.63718 4.66849 6.65959C4.52788 6.88613 4.3352 7.07557 4.10619 7.21213C4.08354 7.22563 4.05967 7.23862 4.01276 7.26462L3.71146 7.43159C3.21015 7.7094 2.95956 7.84842 2.77721 8.04627C2.6159 8.22129 2.49404 8.4289 2.41966 8.655C2.33557 8.91058 2.33564 9.19718 2.33694 9.77031L2.33801 10.2388C2.3393 10.8081 2.34108 11.0925 2.42535 11.3464C2.4999 11.571 2.62087 11.7773 2.78128 11.9513C2.96259 12.1479 3.2107 12.2861 3.7082 12.5629L4.00682 12.729C4.05764 12.7573 4.08321 12.7712 4.10772 12.786C4.33465 12.9226 4.52582 13.1116 4.66523 13.3368C4.68029 13.3611 4.69475 13.3864 4.72366 13.4369C4.75222 13.4868 4.76682 13.5117 4.78003 13.5367C4.90226 13.7681 4.9677 14.0253 4.97216 14.2869C4.97264 14.3152 4.97223 14.3438 4.97126 14.4013L4.96553 14.7409C4.95587 15.3126 4.95167 15.5988 5.03168 15.8551C5.10247 16.0819 5.22078 16.2907 5.37894 16.4679C5.55771 16.6683 5.80554 16.8111 6.30097 17.0966L6.7124 17.3336C7.20644 17.6183 7.45337 17.7606 7.71566 17.8148C7.94769 17.8629 8.18729 17.861 8.41849 17.8091C8.6798 17.7504 8.92465 17.6038 9.41377 17.311L9.70862 17.1344C9.75527 17.1065 9.77889 17.0925 9.80226 17.0795C10.0342 16.9505 10.2928 16.8789 10.558 16.8704C10.5847 16.8695 10.6119 16.8695 10.6663 16.8695C10.7207 16.8695 10.7479 16.8695 10.7747 16.8704C11.0405 16.8789 11.3006 16.9508 11.5329 17.0803C11.5533 17.0917 11.5738 17.104 11.6098 17.1256L11.9232 17.3138C12.4144 17.6086 12.6597 17.7558 12.9221 17.8147C13.1543 17.8668 13.3947 17.8689 13.6276 17.8202C13.8905 17.7653 14.1382 17.6216 14.6322 17.3349L15.0447 17.0955C15.5349 16.811 15.7807 16.6683 15.958 16.4687C16.1153 16.2917 16.233 16.0833 16.3034 15.8571C16.3824 15.6034 16.3776 15.3205 16.3682 14.759L16.362 14.3927C16.3611 14.3391 16.361 14.3125 16.3614 14.2861C16.3653 14.0196 16.433 13.7577 16.5589 13.5228C16.5714 13.4996 16.5849 13.4762 16.6116 13.43C16.6384 13.3836 16.6523 13.3604 16.6662 13.338C16.8068 13.1115 16.9997 12.9219 17.2287 12.7853C17.2511 12.772 17.2741 12.7592 17.3199 12.7338L17.3215 12.7331L17.6228 12.5661C18.1241 12.2883 18.3752 12.1491 18.5575 11.9513C18.7188 11.7763 18.8405 11.569 18.9149 11.3429C18.9985 11.0888 18.9978 10.8039 18.9966 10.2374L18.9955 9.75892C18.9942 9.18961 18.9935 8.90519 18.9092 8.65134C18.8347 8.42675 18.713 8.22037 18.5526 8.0464C18.3715 7.84995 18.123 7.71174 17.6265 7.43551L17.625 7.4348Z" stroke="#6A6B6D" stroke-width="1.5" stroke-linecap="round" stroke-linejoin="round"/>
<path d="M7.33369 9.99899C7.33369 11.8399 8.82607 13.3323 10.667 13.3323C12.508 13.3323 14.0004 11.8399 14.0004 9.99899C14.0004 8.15804 12.508 6.66566 10.667 6.66566C8.82607 6.66566 7.33369 8.15804 7.33369 9.99899Z" stroke="#6A6B6D" stroke-width="1.5" stroke-linecap="round" stroke-linejoin="round"/>
</svg>
