<svg width="21" height="20" viewBox="0 0 21 20" fill="none" xmlns="http://www.w3.org/2000/svg">
<path d="M7.95557 7.56135C8.0979 7.12277 8.35862 6.73247 8.70915 6.4329C9.05967 6.13334 9.48666 5.93648 9.94206 5.86423C10.3975 5.79198 10.8637 5.847 11.2897 6.02336C11.7157 6.19971 12.0847 6.49062 12.3558 6.86361C12.6269 7.23659 12.7892 7.67713 12.8255 8.1368C12.8617 8.59647 12.77 9.05732 12.5607 9.46818C12.3514 9.87904 12.033 10.2237 11.6398 10.4647C11.2467 10.7056 10.7946 10.8331 10.3335 10.8331V11.6669M10.3335 17.5C6.19136 17.5 2.8335 14.1421 2.8335 10C2.8335 5.85786 6.19136 2.5 10.3335 2.5C14.4756 2.5 17.8335 5.85786 17.8335 10C17.8335 14.1421 14.4756 17.5 10.3335 17.5ZM10.375 14.1667V14.25L10.292 14.2502V14.1667H10.375Z" stroke="#6A6B6D" stroke-width="1.5" stroke-linecap="round" stroke-linejoin="round"/>
</svg>
