<svg width="3" height="14" viewBox="0 0 3 14" fill="none" xmlns="http://www.w3.org/2000/svg">
<path d="M1.5 12.9375C2.01777 12.9375 2.4375 12.5178 2.4375 12C2.4375 11.4822 2.01777 11.0625 1.5 11.0625C0.982233 11.0625 0.5625 11.4822 0.5625 12C0.5625 12.5178 0.982233 12.9375 1.5 12.9375Z" fill="#6A6B6D"/>
<path d="M1.5 7.9375C2.01777 7.9375 2.4375 7.51777 2.4375 7C2.4375 6.48223 2.01777 6.0625 1.5 6.0625C0.982233 6.0625 0.5625 6.48223 0.5625 7C0.5625 7.51777 0.982233 7.9375 1.5 7.9375Z" fill="#6A6B6D"/>
<path d="M1.5 2.9375C2.01777 2.9375 2.4375 2.51777 2.4375 2C2.4375 1.48223 2.01777 1.0625 1.5 1.0625C0.982233 1.0625 0.5625 1.48223 0.5625 2C0.5625 2.51777 0.982233 2.9375 1.5 2.9375Z" fill="#6A6B6D"/>
<path d="M1.5 12.9375C2.01777 12.9375 2.4375 12.5178 2.4375 12C2.4375 11.4822 2.01777 11.0625 1.5 11.0625C0.982233 11.0625 0.5625 11.4822 0.5625 12C0.5625 12.5178 0.982233 12.9375 1.5 12.9375Z" stroke="#6A6B6D"/>
<path d="M1.5 7.9375C2.01777 7.9375 2.4375 7.51777 2.4375 7C2.4375 6.48223 2.01777 6.0625 1.5 6.0625C0.982233 6.0625 0.5625 6.48223 0.5625 7C0.5625 7.51777 0.982233 7.9375 1.5 7.9375Z" stroke="#6A6B6D"/>
<path d="M1.5 2.9375C2.01777 2.9375 2.4375 2.51777 2.4375 2C2.4375 1.48223 2.01777 1.0625 1.5 1.0625C0.982233 1.0625 0.5625 1.48223 0.5625 2C0.5625 2.51777 0.982233 2.9375 1.5 2.9375Z" stroke="#6A6B6D"/>
</svg>
