<svg width="18" height="15" viewBox="0 0 18 15" fill="none" xmlns="http://www.w3.org/2000/svg">
<path d="M2.33333 2.50017L7.42303 6.34373L7.42473 6.34514C7.98987 6.75958 8.27261 6.96692 8.5823 7.04702C8.85602 7.11782 9.14376 7.11782 9.41748 7.04702C9.72744 6.96685 10.011 6.7589 10.5771 6.34373C10.5771 6.34373 13.8417 3.83846 15.6667 2.50017M1.5 10.667V4.33367C1.5 3.40025 1.5 2.93319 1.68166 2.57667C1.84144 2.26307 2.09623 2.00828 2.40983 1.8485C2.76635 1.66684 3.23341 1.66684 4.16683 1.66684H13.8335C14.7669 1.66684 15.233 1.66684 15.5895 1.8485C15.9031 2.00828 16.1587 2.26307 16.3185 2.57667C16.5 2.93284 16.5 3.39933 16.5 4.33093V10.6698C16.5 11.6014 16.5 12.0672 16.3185 12.4234C16.1587 12.737 15.9031 12.9922 15.5895 13.152C15.2333 13.3335 14.7675 13.3335 13.8359 13.3335H4.16409C3.23249 13.3335 2.766 13.3335 2.40983 13.152C2.09623 12.9922 1.84144 12.737 1.68166 12.4234C1.5 12.0669 1.5 11.6004 1.5 10.667Z" stroke="#6A6B6D" stroke-width="1.5" stroke-linecap="round" stroke-linejoin="round"/>
</svg>
