<svg width="28" height="28" viewBox="0 0 28 28" fill="none" xmlns="http://www.w3.org/2000/svg">
<path d="M7 11.6661V9.33276C7 5.4711 8.16667 2.33276 14 2.33276C19.8333 2.33276 21 5.4711 21 9.33276V11.6661" stroke="#109FDA" stroke-width="2" stroke-linecap="round" stroke-linejoin="round"/>
<path d="M13.9999 21.5831C15.6107 21.5831 16.9166 20.2773 16.9166 18.6664C16.9166 17.0556 15.6107 15.7498 13.9999 15.7498C12.3891 15.7498 11.0833 17.0556 11.0833 18.6664C11.0833 20.2773 12.3891 21.5831 13.9999 21.5831Z" stroke="#109FDA" stroke-width="2" stroke-linecap="round" stroke-linejoin="round"/>
<path d="M19.8333 25.6665H8.16659C3.49992 25.6665 2.33325 24.4998 2.33325 19.8332V17.4998C2.33325 12.8332 3.49992 11.6665 8.16659 11.6665H19.8333C24.4999 11.6665 25.6666 12.8332 25.6666 17.4998V19.8332C25.6666 24.4998 24.4999 25.6665 19.8333 25.6665Z" stroke="#109FDA" stroke-width="2" stroke-linecap="round" stroke-linejoin="round"/>
</svg>
