<svg width="20" height="21" viewBox="0 0 20 21" fill="none" xmlns="http://www.w3.org/2000/svg">
<path d="M5 8.83311V7.16644C5 4.40811 5.83333 2.16644 10 2.16644C14.1667 2.16644 15 4.40811 15 7.16644V8.83311" stroke="#6A6B6D" stroke-width="1.5" stroke-linecap="round" stroke-linejoin="round"/>
<path d="M9.99996 15.9167C11.1506 15.9167 12.0833 14.9839 12.0833 13.8333C12.0833 12.6827 11.1506 11.75 9.99996 11.75C8.84937 11.75 7.91663 12.6827 7.91663 13.8333C7.91663 14.9839 8.84937 15.9167 9.99996 15.9167Z" stroke="#6A6B6D" stroke-width="1.5" stroke-linecap="round" stroke-linejoin="round"/>
<path d="M14.1666 18.8333H5.83329C2.49996 18.8333 1.66663 18 1.66663 14.6666V13C1.66663 9.66665 2.49996 8.83331 5.83329 8.83331H14.1666C17.5 8.83331 18.3333 9.66665 18.3333 13V14.6666C18.3333 18 17.5 18.8333 14.1666 18.8333Z" stroke="#6A6B6D" stroke-width="1.5" stroke-linecap="round" stroke-linejoin="round"/>
</svg>
