<svg width="18" height="18" viewBox="0 0 18 18" fill="none" xmlns="http://www.w3.org/2000/svg">
<path d="M13.0071 2.60584L10.0567 5.55629L10.4544 7.54503L12.4432 7.94277L15.3936 4.99233C15.7588 5.85438 15.8464 6.80872 15.6438 7.72274C15.4411 8.63675 14.9585 9.46484 14.2632 10.0917C13.5678 10.7186 12.6943 11.1131 11.7643 11.2204C10.8342 11.3276 9.89388 11.1421 9.07414 10.6899L5.13067 15.2553C4.81414 15.5714 4.38502 15.749 3.93763 15.7489C3.49024 15.7487 3.06122 15.5709 2.74487 15.2546C2.42852 14.9382 2.25074 14.5092 2.25061 14.0618C2.25048 13.6144 2.42802 13.1853 2.74419 12.8688L7.30967 8.92528C6.85742 8.10554 6.6719 7.16525 6.77911 6.23519C6.88631 5.30513 7.28082 4.43164 7.90772 3.7363C8.53462 3.04095 9.3627 2.55836 10.2767 2.35569C11.1907 2.15302 12.1451 2.24065 13.0071 2.60584Z" stroke="#109FDA" stroke-width="1.4" stroke-linecap="round" stroke-linejoin="round"/>
</svg>
