<svg width="18" height="18" viewBox="0 0 18 18" fill="none" xmlns="http://www.w3.org/2000/svg">
<path d="M3.56118 5.73364L3.31276 8.46623C3.27597 8.87093 3.25741 9.07498 3.29109 9.26868C3.32119 9.44174 3.38129 9.60828 3.46896 9.7605C3.56747 9.93151 3.71306 10.0771 4.0026 10.3666L7.88422 14.2483C8.4745 14.8385 8.7698 15.1338 9.11121 15.2448C9.41247 15.3427 9.73752 15.3429 10.0388 15.245C10.3813 15.1337 10.6789 14.8365 11.2729 14.2424L14.2428 11.2726C14.8368 10.6786 15.1333 10.3817 15.2446 10.0392C15.3425 9.73792 15.3419 9.41324 15.244 9.11197C15.1327 8.76948 14.8366 8.47266 14.2426 7.87864L10.3706 4.00659C10.0784 3.71442 9.93226 3.56832 9.76047 3.46936C9.60825 3.38169 9.44171 3.32133 9.26864 3.29124C9.07332 3.25728 8.86747 3.27595 8.45597 3.31336L5.73361 3.56084C5.02504 3.62526 4.67053 3.65761 4.39328 3.81179C4.14883 3.94772 3.94732 4.14923 3.81139 4.39368C3.65798 4.66955 3.62598 5.02154 3.56221 5.72307L3.56118 5.73364Z" stroke="#454648" stroke-width="1.3" stroke-linecap="round" stroke-linejoin="round"/>
<path d="M7.28468 7.2846C7.57758 6.99171 7.57758 6.51684 7.28468 6.22394C6.99179 5.93105 6.51658 5.93105 6.22369 6.22394C5.93079 6.51684 5.93051 6.9916 6.2234 7.28449C6.5163 7.57738 6.99179 7.5775 7.28468 7.2846Z" stroke="#454648" stroke-width="1.3" stroke-linecap="round" stroke-linejoin="round"/>
</svg>
